HIERARCHY
ROOT Hips
{
	OFFSET 0.00000 0.00000 0.00000
	CHANNELS 6 Xposition Yposition Zposition Yrotation Zrotation Xrotation 
	JOINT Lumbar
	{
		OFFSET 0 0 0
		CHANNELS 3 Zrotation Xrotation Yrotation
		JOINT Neck
		{
			OFFSET 0.00 0.2701 0.00
			CHANNELS 3 Zrotation Xrotation Yrotation
			End Site
			{
				OFFSET 0.00 0.1379 0.00
			}
		}
		JOINT RightShoulder
		{
			OFFSET 0.0119 0.2289 0.1181
			CHANNELS 3 Zrotation Xrotation Yrotation
			JOINT RightElbow
			{
				OFFSET 0.00 -0.1475 0.00
				CHANNELS 2 Zrotation Yrotation
				JOINT RightWrist
				{
					OFFSET 0.00 -0.1605 0.00
					CHANNELS 2 Zrotation Xrotation
					End Site
					{
						OFFSET 0.0040 -0.1068 0.0006
					}
				}
			}
		}
		JOINT LeftShoulder
		{
			OFFSET 0.0119 0.2289 -0.1181
			CHANNELS 3 Zrotation Xrotation Yrotation
			JOINT LeftElbow
			{
				OFFSET 0.00 -0.1475 0.00
				CHANNELS 2 Zrotation Yrotation
				JOINT LeftWrist
				{
					OFFSET 0.00 -0.1605 0.00
					CHANNELS 2 Zrotation Xrotation
					End Site
					{
						OFFSET 0.0040 -0.1068 -0.0006
					}
				}
			}
		}
	}
	JOINT RightHip
	{
		OFFSET 0.0316 -0.0424 0.0458
		CHANNELS 3 Zrotation Xrotation Yrotation
		JOINT RightKnee
		{
			OFFSET 0.00 -0.2438 0.00
			CHANNELS 1 Zrotation
			JOINT RightAnkle
			{
				OFFSET 0.00 -0.2449 0.00
				CHANNELS 3 Zrotation Xrotation Yrotation
				End Site
				{
					OFFSET 0.1237 -0.0542 0.0051
				}
			}
		}
	}
	JOINT LeftHip
	{
		OFFSET 0.0316 -0.0424 -0.0458
		CHANNELS 3 Zrotation Xrotation Yrotation
		JOINT LeftKnee
		{
			OFFSET 0.00 -0.2438 0.00
			CHANNELS 1 Zrotation
			JOINT LeftAnkle
			{
				OFFSET 0.00 -0.2449 0.00
				CHANNELS 3 Zrotation Xrotation Yrotation
				End Site
				{
					OFFSET 0.1237 -0.0542 -0.0051
				}
			}
		}
	}
}
MOTION
Frames: 14
Frame Time: 0.02
-0.02178 0.00119 0.00156 -150.7615 -39.45489 -1.65905 46.13648 1.80701 14.06436 13.10756 6.41403 -0.83077 80.35453 -14.69204 64.17034 5.32871 85.281 3.57036 2.77891 -54.706 20.38607 -62.35951 102.61469 -86.71647 23.58202 2.91342 40.40803 0.87655 -7.33405 -19.08686 -6.34951 -3.0542 -2.20949 43.3426 3.52607 3.38445 -24.1652 -6.54414 2.70882 2.04556
-0.02191 0.0012 0.00161 -150.88314 -39.41616 -1.67867 46.12308 1.80467 13.8486 12.93173 6.49483 -0.83077 81.08047 -14.37709 64.17033 5.32843 85.94937 3.36338 2.70677 -54.53576 20.26568 -62.56803 102.47552 -86.54555 23.05206 3.13357 40.34066 0.86073 -7.45497 -19.07381 -6.34745 -3.03189 -2.19553 43.26855 3.51357 3.31199 -24.16389 -6.5422 2.72504 2.05446
-0.02205 0.0012 0.00165 -150.99006 -39.35516 -1.69914 46.09245 1.79638 13.592 12.72775 6.57238 -0.83077 81.65041 -14.03667 64.17017 5.32894 86.95142 3.165 2.63776 -54.33337 20.13607 -62.83094 102.30335 -86.3889 22.46926 3.37442 40.24513 0.83984 -7.63428 -19.0604 -6.3446 -3.00779 -2.17951 43.17036 3.50792 3.25084 -24.16369 -6.54015 2.73999 2.06176
-0.02219 0.0012 0.0017 -151.10324 -39.30525 -1.71966 46.071 1.79038 13.362 12.54259 6.64833 -0.83077 82.24187 -13.72117 64.17031 5.3286 87.80406 2.97528 2.55113 -54.16749 20.00775 -63.054 102.15019 -86.21654 21.91699 3.59779 40.16359 0.82512 -7.76812 -19.04777 -6.34223 -2.98666 -2.16575 43.08377 3.49784 3.17533 -24.16316 -6.53821 2.75726 2.07073
-0.0223 0.00122 0.00174 -151.21933 -39.25224 -1.73845 46.0445 1.78604 13.09792 12.33192 6.73828 -0.83077 83.05718 -13.34662 64.1702 5.32768 88.65296 2.73399 2.5291 -53.91197 19.89047 -63.33904 101.9823 -86.08818 21.33673 3.85582 40.07845 0.79495 -7.97712 -19.03251 -6.33949 -2.95693 -2.14673 42.99573 3.49312 3.13761 -24.1619 -6.53614 2.76737 2.07588
-0.02248 0.00121 0.00179 -151.32479 -39.20003 -1.76092 46.02391 1.77697 12.89458 12.16769 6.79724 -0.83077 83.3586 -13.09171 64.16964 5.33146 89.57813 2.59896 2.37574 -53.83295 19.74835 -63.51046 101.83548 -85.86752 20.80035 4.0472 39.99348 0.79496 -8.04769 -19.02264 -6.33726 -2.94422 -2.13791 42.90456 3.47925 3.02586 -24.16239 -6.53425 2.79169 2.08837
-0.02287 0.00114 0.00185 -151.41246 -39.15533 -1.79444 46.02718 1.75505 12.8765 12.13883 6.77973 -0.83077 82.33372 -13.1554 64.17135 5.3245 90.74032 2.78899 1.84743 -54.26887 19.54172 -63.33134 101.76723 -85.41566 20.424 4.03883 39.91722 0.88557 -7.69121 -19.02782 -6.33679 -2.98245 -2.15974 42.81032 3.43469 2.68755 -24.16761 -6.53311 2.8597 2.12379
-0.02333 0.00105 0.00191 -151.4884 -39.11211 -1.83146 46.03633 1.72888 12.91976 12.15743 6.72953 -0.83077 80.78373 -13.34531 64.16885 5.32979 91.94959 3.08036 1.19027 -54.88045 19.31057 -63.03986 101.71939 -84.86588 20.08954 3.9645 39.84174 1.00566 -7.19904 -19.03845 -6.33681 -3.03726 -2.19155 42.71372 3.38139 2.27783 -24.1745 -6.53211 2.94134 2.16624
-0.02376 0.00097 0.00198 -151.5644 -39.06814 -1.8661 46.04056 1.7054 12.92999 12.15449 6.68886 -0.83077 79.43913 -13.48754 64.16989 5.34091 93.06522 3.3025 0.59895 -55.39763 19.08923 -62.81582 101.65336 -84.34153 19.71882 3.927 39.76475 1.10818 -6.78971 -19.04653 -6.33645 -3.0821 -2.21744 42.61819 3.33451 1.91342 -24.18054 -6.53087 3.01406 2.20399
-0.02419 0.0009 0.00203 -151.66209 -39.02364 -1.90398 46.05365 1.67824 12.96014 12.15145 6.67073 -0.83077 78.23669 -13.58208 64.17677 5.29099 94.49154 3.61965 -0.02668 -55.97221 18.87187 -62.52654 101.62178 -83.89442 19.41745 3.86096 39.6914 1.22784 -6.29436 -19.05484 -6.33668 -3.13688 -2.24898 42.52163 3.27748 1.49524 -24.18707 -6.53034 3.09818 2.24801
-0.02463 0.00081 0.00212 -151.71206 -38.98102 -1.93611 46.04996 1.65816 12.96441 12.15902 6.59775 -0.83077 76.60662 -13.81369 64.15454 5.38734 95.28499 3.76678 -0.60696 -56.47312 18.64218 -62.34323 101.52628 -83.26781 18.98413 3.83885 39.61136 1.31924 -5.94344 -19.06404 -6.33587 -3.17525 -2.27132 42.42722 3.23949 1.17182 -24.19286 -6.52842 3.1619 2.28072
-0.02507 0.00069 0.00229 -151.63282 -38.94208 -1.95 45.998 1.6556 12.87768 12.19543 6.38295 -0.83077 74.00055 -14.32792 64.19094 5.74221 94.25358 3.38644 -1.07043 -56.6946 18.37274 -62.50187 101.22801 -82.12637 18.16096 3.95042 39.51009 1.32192 -6.0404 -19.0737 -6.33161 -3.16146 -2.26436 42.33748 3.25561 1.12875 -24.19693 -6.52208 3.16515 2.28002
-0.02551 0.00055 0.00249 -151.50611 -38.90538 -1.95826 45.92907 1.66082 12.76368 12.23927 6.11401 -0.83077 70.96963 -14.98669 64.17345 6.26799 92.59401 2.838 -1.47741 -56.84157 18.09559 -62.76688 100.86924 -80.81477 17.20685 4.10896 39.4028 1.29572 -6.28471 -19.08416 -6.32638 -3.13102 -2.24802 42.2506 3.29126 1.18322 -24.20006 -6.51443 3.14754 2.2678
-0.02595 0.00043 0.00268 -151.40138 -38.8684 -1.97012 45.8684 1.66469 12.66551 12.27213 5.86849 -0.83077 68.08278 -15.62374 64.08883 6.81198 91.26378 2.38781 -1.88267 -57.04529 17.82767 -62.96837 100.55174 -79.61034 16.32274 4.24852 39.29995 1.28518 -6.45016 -19.09472 -6.3219 -3.11019 -2.23696 42.16357 3.31836 1.19222 -24.20307 -6.50771 3.14005 2.26118
